# xmcd
#
# Track frame offsets:
#	150
#	14370
#	28658
#	43481
#	58359
#	71496
#	83310
#	95262
#	108224
#	120051
#	133810
#	146869
#	162557
#	175608
#	189638
#	202852
#	217137
#	229415
#	242098
#	254090
#	267254
#	279630
#	291871
#	305511
#
# Disc length: 4261 seconds
#
# Revision: 1
# Processed by: cddbd v1.5.1PL0 Copyright (c) Steve Scherf et al.
# Submitted via: audiograbber 1.82.02
#
DISCID=6c10a318
DTITLE=T-Bone Walker - Quadromania Disk 1 von 4
DYEAR=2001
DGENRE=Blues
TTITLE0=Trinity River Blues
TTITLE1=Wichita Falls Blues
TTITLE2=T-Bone Blues
TTITLE3=I Got A Break Baby
TTITLE4=Mean Old World
TTITLE5=Low Down Dirty Shame
TTITLE6=Sail On Boogie
TTITLE7=Mean Old World Blues
TTITLE8=You Don't Love Me Blues
TTITLE9=T-Bone Boogie
TTITLE10=I'm Still In Love With You
TTITLE11=Evening
TTITLE12=My Baby Left Me
TTITLE13=Come Back To Me Baby
TTITLE14=She's Going To Ruin Me
TTITLE15=I Can't Stand Being Away From You
TTITLE16=No Worry Blues
TTITLE17=Don't Leave Me Baby
TTITLE18=Bobby Sox Blues
TTITLE19=I'm Gonna Find My Baby
TTITLE20=I Know Your Wig Is Gone
TTITLE21=T-Bone Jumps Again
TTITLE22=Call It Stormy Monday
TTITLE23=She Had To Let Me Down
EXTD=
EXTT0=
EXTT1=
EXTT2=
EXTT3=
EXTT4=
EXTT5=
EXTT6=
EXTT7=
EXTT8=
EXTT9=
EXTT10=
EXTT11=
EXTT12=
EXTT13=
EXTT14=
EXTT15=
EXTT16=
EXTT17=
EXTT18=
EXTT19=
EXTT20=
EXTT21=
EXTT22=
EXTT23=
PLAYORDER=
